<svg width="16" height="16" viewBox="0 0 16 16" fill="none" xmlns="http://www.w3.org/2000/svg">
<path d="M11.5288 3.52863C11.7891 3.26833 12.2108 3.26844 12.4712 3.52863C12.7315 3.78897 12.7315 4.21066 12.4712 4.47101L8.94189 7.99933L12.4712 11.5286C12.7315 11.789 12.7315 12.2107 12.4712 12.471C12.2108 12.7314 11.7892 12.7314 11.5288 12.471L7.99951 8.94171L4.47119 12.471C4.21084 12.7314 3.78916 12.7314 3.52881 12.471C3.26862 12.2106 3.26851 11.7889 3.52881 11.5286L7.05713 7.99933L3.52881 4.47101C3.26862 4.21065 3.26851 3.78892 3.52881 3.52863C3.7891 3.26833 4.21083 3.26844 4.47119 3.52863L7.99951 7.05695L11.5288 3.52863Z" fill="#0F0F11"/>
</svg>
